<?xml version="1.0" encoding="UTF-8"?>
<svg id="Layer_4" data-name="Layer 4" xmlns="http://www.w3.org/2000/svg" viewBox="0 0 1920 3240">
  <defs>
    <style>
      .cls-1 {
        fill: none;
        stroke: #191919;
        stroke-miterlimit: 10;
        stroke-width: 4px;
      }
    </style>
  </defs>
  <path class="cls-1" d="M1706.16,69.07s-191.7,319.82-188.14,334.26,261.24-334.26,261.24-334.26"/>
  <path class="cls-1" d="M1007.92,67.78c-70.17,184.92-132.52,373.11-178.83,565.52-29.29,121.7-65.91,249.89-45.26,376.01s108.87,211.26,214.68,277.29c123.38,77,257.09,135.39,391.8,189.33,132.95,53.23,265.47,107.61,398.21,161.18,4.32,1.74,8.61,3.56,12.91,5.34,1.61.66,3.22,1.33,4.83,1.99"/>
  <path class="cls-1" d="M753,64.32s-342.02,370.45-341.49,389.76c.36,13.14,33.87-17.67,40.96-23.63,19.09-16.06,36.7-34.37,54.91-51.43,36-33.7,71.99-67.39,107.99-101.09,59.38-55.59,121.04-112.6,197.6-140.08,16.81-6.03,39.92-8.07,40.77,15.66.43,11.94-1.25,24.54-3.81,36.18-2.77,12.59-6.13,25.1-9.9,37.42-2.74,8.96-5.7,17.84-8.75,26.7-8.39,24.35-16.12,48.88-24.05,73.37-3.82,11.79-7.76,23.54-12.04,35.18-26.36,71.7-56.78,141.84-88.93,211.12-18.89,40.71-38.38,81.13-58.05,121.46-39.9,81.83-83.35,163.64-146.91,228.83-101.76,104.36-237.9,143.1-379.79,149.53"/>
  <path class="cls-1" d="M111.66,1222.81s311.1-5.35,278.27,258.73-268.42,192.73-268.42,192.73"/>
  <path class="cls-1" d="M1806.27,1711.24c-142.77-61.1-287.14-118.5-433.04-171.71-139.26-50.79-280.95-105.57-425.87-137.74-73.65-16.35-150.29-21.37-220.89,10.24-255.1,114.24-155.78,450.62-29.33,622.86,75.49,102.84,171.71,188.12,268.34,270.48,238.62,203.36,486.42,393.62,736.42,582.57,10.08,7.62,19.95,15.47,30.12,22.99,21.7,16.03,43.43,32.02,65.25,47.89"/>
  <path class="cls-1" d="M1713.59,2966.66c-236.86-182.76-477.3-362.4-726.78-527.66-78.34-51.9-157.74-102.22-238.43-150.39-48.49-28.95-99.26-58.39-150.36-82.46-46.77-22.03-100.05-36.04-150.21-23.51-47.48,11.86-86.4,46.07-117.04,84.22-100.61,125.28-167.91,268.53-220.03,419.67"/>
  <path class="cls-1" d="M121.52,1831.42s121.86,61.59,130.5,180.8-130.5,412.73-130.5,412.73"/>
</svg>