<?xml version="1.0" encoding="UTF-8"?>
<svg id="Layer_2" data-name="Layer 2" xmlns="http://www.w3.org/2000/svg" viewBox="0 0 128.11 75.55">
  <defs>
    <style>
      .cls-1 {
        fill: #fbb728;
      }

      .cls-2 {
        fill: #236598;
      }
    </style>
  </defs>
  <g id="Layer_4" data-name="Layer 4">
    <g>
      <g>
        <path d="M89.32,14.47h2.84v16.58c0,2.1.69,3.15,2.08,3.15.61,0,1.11-.26,1.5-.79s.58-1.27.58-2.23V14.47h2.84v16.4c0,1.94-.49,3.42-1.47,4.44s-2.13,1.53-3.46,1.53c-1.41,0-2.58-.53-3.52-1.6s-1.4-2.45-1.4-4.15V14.47Z"/>
        <path d="M101.5,36.56l4.17-22.21h2.95l4.13,22.21h-2.74l-.79-4.89h-4.1l-.87,4.89h-2.75ZM105.53,29.02h3.18l-1.55-9.25h-.08l-1.55,9.25Z"/>
        <path d="M89.48,61.64v-22.09h2.83v9.72h4.23v-9.72h2.83v22.09h-2.83v-9.72h-4.23v9.72h-2.83Z"/>
        <path d="M103.43,39.55h2.84v16.58c0,2.1.69,3.15,2.08,3.15.61,0,1.11-.26,1.5-.79s.58-1.27.58-2.23v-16.71h2.84v16.4c0,1.94-.49,3.42-1.47,4.44s-2.13,1.53-3.46,1.53c-1.41,0-2.58-.53-3.52-1.6s-1.4-2.45-1.4-4.15v-16.63Z"/>
        <path d="M117.34,61.64v-22.09h3.38c1.67,0,3.05.54,4.16,1.62,1.1,1.08,1.65,2.36,1.65,3.84,0,1.99-.96,3.58-2.87,4.76,2.25,1.05,3.38,2.88,3.38,5.49,0,1.88-.61,3.42-1.83,4.6-1.22,1.18-2.94,1.78-5.18,1.78h-2.68ZM120.18,48.92h.26c.99,0,1.78-.31,2.37-.94.59-.62.88-1.46.88-2.5s-.28-1.85-.85-2.42c-.56-.57-1.36-.86-2.4-.86h-.26v6.72ZM120.18,58.99h.5c1.1,0,1.96-.32,2.58-.96.62-.64.93-1.53.93-2.67s-.3-2.04-.91-2.75c-.61-.7-1.47-1.06-2.59-1.06h-.5v7.43Z"/>
      </g>
      <g>
        <path class="cls-1" d="M26,26.85l-5.06-5.05H4.58l13.71,15.15h6.1c-.42-.55-.8-1.14-1.08-1.79-1.4-3.31.11-6.52,2.69-8.3Z"/>
        <path class="cls-2" d="M32.96,25.91c1.59.62,2.86,1.81,3.68,3.3,0,0,.19.34.31.55l.02-12.14L21.83,3.9l-.02,16.36,5.74,5.76c1.68-.68,3.6-.81,5.4-.11Z"/>
        <path class="cls-2" d="M52.76,32.69c-.05.96-.29,1.91-.7,2.79-.16.35-.35.68-.55,1-.1.15-.21.3-.31.45h6.07l13.71-15.15h-16.36l-4.99,4.99c1.93,1.17,3.29,3.18,3.15,5.92Z"/>
        <path class="cls-1" d="M47.97,26.04l5.77-5.79-.02-16.36-15.13,13.73.02,12.26c.2-.37.37-.67.37-.67,1.83-3.32,5.78-4.2,8.99-3.17Z"/>
        <rect class="cls-2" x="35.03" y="1.14" width="5.49" height="5.49" transform="translate(8.32 27.85) rotate(-45)"/>
        <path class="cls-1" d="M49.83,38.61c-.37.41-.74.81-1.12,1.2-1.31,1.38-2.59,2.78-3.86,4.19l9.76,9.76h16.36l-13.71-15.15h-7.43Z"/>
        <path class="cls-2" d="M40.76,48.5c-.66.72-1.57,1.47-2.16,2.29v7.14s15.12,13.73,15.12,13.73l.02-16.36-10.03-10.06c-.09.1-.19.2-.28.31-.89.98-1.76,1.98-2.66,2.96Z"/>
        <path class="cls-2" d="M25.87,38.62h-7.58l-13.71,15.15h16.36l9.82-9.82c-1.07-1.18-2.14-2.36-3.19-3.55-.54-.61-1.13-1.18-1.7-1.77Z"/>
        <path class="cls-1" d="M35.99,49.72l-3.15-3.46c-.32-.35-.63-.71-.95-1.06l-10.08,10.1.02,16.36,15.13-13.73v-7.24c-.31-.35-.69-.67-.97-.98Z"/>
        <rect class="cls-2" x="35.03" y="68.92" width="5.49" height="5.49" transform="translate(-39.61 47.7) rotate(-45)"/>
        <rect class="cls-2" x="68.92" y="35.03" width="5.49" height="5.49" transform="translate(-5.72 61.74) rotate(-45)"/>
        <rect class="cls-2" x="1.14" y="35.03" width="5.49" height="5.49" transform="translate(-25.57 13.81) rotate(-45)"/>
      </g>
    </g>
  </g>
</svg>