<?xml version="1.0" encoding="UTF-8"?>
<svg id="Layer_2" data-name="Layer 2" xmlns="http://www.w3.org/2000/svg" viewBox="0 0 277.33 467.98">
  <defs>
    <style>
      .cls-1 {
        fill: #fff;
      }
    </style>
  </defs>
  <g id="Layer_5" data-name="Layer 5">
    <path class="cls-1" d="M277.33,233.99s-.06.03-.1.03c-1.66.51-4.55,1.12-6.02,1.5-2.3.64-4.58,1.38-6.85,2.14-4.58,1.54-9.03,3.33-13.41,5.38-8.1,3.78-16.64,8.22-23.49,14.08-6.15,5.25-11.07,12.51-11.62,20.8-.64,9.89,3.39,19.94,5.73,29.41.1.42.99,3.65,1.15,4.8-10.11-2.46-22.28-7.71-32.61-4.26-11.04,3.65-18.5,16.51-23.59,26.21-11.04,20.83-16.45,44.04-19.84,67.24-1.28,8.71-2.21,17.44-2.91,26.21,0,0-2.62,40.42-5.12,40.42s-4.48-41.19-4.48-41.19c-3.17-40.04-4.64-61.23-21.54-91.98,0,0,62.44-48.42,52.55-76.3-2.37-6.69-13.54-12.07-22.31-9.19-20.96,6.91-33.73,23.91-34.5,24.58.35-.9,8.61-19.08,2.53-22.31-13.95-7.42-44.81,14.69-44.81,14.69-21.19-22.79-37.96-25.96-66.09-32.29,1.7-.48,4.64-1.12,6.11-1.54,2.34-.64,4.61-1.34,6.88-2.11,4.58-1.57,9.02-3.36,13.41-5.38,8.1-3.81,16.64-8.26,23.49-14.08,6.14-5.28,11.07-12.55,11.62-20.8.64-9.89-3.39-19.94-5.73-29.41-.1-.42-.99-3.65-1.18-4.83,10.15,2.5,22.31,7.71,32.65,4.29,11.04-3.65,18.47-16.51,23.59-26.21,11.04-20.87,16.45-44.07,19.84-67.24,1.28-8.71,2.21-17.47,2.88-26.24,0,0,2.62-40.42,5.12-40.42s4.48,41.19,4.48,41.19c3.17,40.04,4.64,61.23,21.54,91.98,0,0-62.44,48.43-52.55,76.3,2.37,6.69,13.57,12.1,22.31,9.18,21-6.91,33.73-23.91,34.5-24.58-.35.9-8.58,19.11-2.5,22.34,13.95,7.42,44.78-14.72,44.78-14.72,21.19,22.79,37.96,25.96,66.09,32.29Z"/>
  </g>
</svg>